<?xml version="1.0" encoding="UTF-8" standalone="no"?>
<!-- Created with Inkscape (http://www.inkscape.org/) -->

<svg
   xmlns:osb="http://www.openswatchbook.org/uri/2009/osb"
   xmlns:dc="http://purl.org/dc/elements/1.1/"
   xmlns:cc="http://creativecommons.org/ns#"
   xmlns:rdf="http://www.w3.org/1999/02/22-rdf-syntax-ns#"
   xmlns:svg="http://www.w3.org/2000/svg"
   xmlns="http://www.w3.org/2000/svg"
   xmlns:xlink="http://www.w3.org/1999/xlink"
   xmlns:sodipodi="http://sodipodi.sourceforge.net/DTD/sodipodi-0.dtd"
   xmlns:inkscape="http://www.inkscape.org/namespaces/inkscape"
   width="728"
   height="100"
   id="svg2985"
   version="1.1"
   inkscape:version="0.48.1 r9760"
   sodipodi:docname="banner_cog.svg"
   inkscape:export-filename="/Users/Dev/dev/csirtfoundry.com/img/banner_cog.png"
   inkscape:export-xdpi="94.5"
   inkscape:export-ydpi="94.5">
  <defs
     id="defs2987">
    <linearGradient
       inkscape:collect="always"
       id="linearGradient4542">
      <stop
         style="stop-color:#000000;stop-opacity:1;"
         offset="0"
         id="stop4544" />
      <stop
         style="stop-color:#000000;stop-opacity:0;"
         offset="1"
         id="stop4546" />
    </linearGradient>
    <linearGradient
       inkscape:collect="always"
       id="linearGradient3792">
      <stop
         style="stop-color:#000000;stop-opacity:1;"
         offset="0"
         id="stop3794" />
      <stop
         style="stop-color:#000000;stop-opacity:0;"
         offset="1"
         id="stop3796" />
    </linearGradient>
    <linearGradient
       inkscape:collect="always"
       id="linearGradient5407">
      <stop
         style="stop-color:#000000;stop-opacity:1;"
         offset="0"
         id="stop5409" />
      <stop
         style="stop-color:#000000;stop-opacity:0;"
         offset="1"
         id="stop5411" />
    </linearGradient>
    <linearGradient
       id="linearGradient5365"
       osb:paint="solid">
      <stop
         style="stop-color:#ff6600;stop-opacity:1;"
         offset="0"
         id="stop5367" />
    </linearGradient>
    <linearGradient
       inkscape:collect="always"
       id="linearGradient4631">
      <stop
         style="stop-color:#000000;stop-opacity:1;"
         offset="0"
         id="stop4633" />
      <stop
         style="stop-color:#000000;stop-opacity:0;"
         offset="1"
         id="stop4635" />
    </linearGradient>
    <pattern
       patternUnits="userSpaceOnUse"
       width="8.6623106"
       height="6.9721041"
       patternTransform="translate(34.438, 86.6553)"
       id="pattern1929">
      <rect
         y="0"
         x="0"
         height="6.9721041"
         width="8.6623106"
         id="rect1927"
         style="fill:#4bffff;fill-opacity:1;stroke:none;stroke-width:3;stroke-linecap:round;stroke-linejoin:round;stroke-miterlimit:4;stroke-dasharray:none;stroke-opacity:1" />
    </pattern>
    <pattern
       xlink:href="#pattern1929"
       id="pattern1968"
       patternTransform="translate(34.438, 86.6553)" />
    <pattern
       xlink:href="#pattern1929"
       id="pattern1976"
       patternTransform="translate(86.6553, -50.0724)" />
    <pattern
       xlink:href="#pattern1929"
       id="pattern1980"
       patternTransform="translate(-50.0724, -102.29)" />
    <linearGradient
       inkscape:collect="always"
       xlink:href="#linearGradient4631"
       id="linearGradient4637"
       x1="0"
       y1="-108.30196"
       x2="571.13385"
       y2="-108.30196"
       gradientUnits="userSpaceOnUse" />
    <radialGradient
       inkscape:collect="always"
       xlink:href="#linearGradient5407"
       id="radialGradient5415"
       cx="285.21698"
       cy="-107.95202"
       fx="285.21698"
       fy="-107.95202"
       r="288.41388"
       gradientTransform="matrix(1,0,0,1.2929298,0,31.622367)"
       gradientUnits="userSpaceOnUse" />
    <radialGradient
       inkscape:collect="always"
       xlink:href="#linearGradient5407"
       id="radialGradient5595"
       gradientUnits="userSpaceOnUse"
       gradientTransform="matrix(1,0,0,1.2929298,0,31.622367)"
       cx="285.21698"
       cy="-107.95202"
       fx="285.21698"
       fy="-107.95202"
       r="288.41388" />
    <radialGradient
       inkscape:collect="always"
       xlink:href="#linearGradient5407"
       id="radialGradient5597"
       gradientUnits="userSpaceOnUse"
       gradientTransform="matrix(1,0,0,1.2929298,0,31.622367)"
       cx="285.21698"
       cy="-107.95202"
       fx="285.21698"
       fy="-107.95202"
       r="288.41388" />
    <radialGradient
       inkscape:collect="always"
       xlink:href="#linearGradient5407"
       id="radialGradient5599"
       gradientUnits="userSpaceOnUse"
       gradientTransform="matrix(1,0,0,1.2929298,0,31.622367)"
       cx="285.21698"
       cy="-107.95202"
       fx="285.21698"
       fy="-107.95202"
       r="288.41388" />
    <radialGradient
       inkscape:collect="always"
       xlink:href="#linearGradient5407"
       id="radialGradient5601"
       gradientUnits="userSpaceOnUse"
       gradientTransform="matrix(1,0,0,1.2929298,0,31.622367)"
       cx="285.21698"
       cy="-107.95202"
       fx="285.21698"
       fy="-107.95202"
       r="288.41388" />
    <radialGradient
       inkscape:collect="always"
       xlink:href="#linearGradient5407"
       id="radialGradient5663"
       gradientUnits="userSpaceOnUse"
       gradientTransform="matrix(1,0,0,1.2929298,0,31.622367)"
       cx="285.21698"
       cy="-107.95202"
       fx="285.21698"
       fy="-107.95202"
       r="288.41388" />
    <radialGradient
       inkscape:collect="always"
       xlink:href="#linearGradient5407"
       id="radialGradient5665"
       gradientUnits="userSpaceOnUse"
       gradientTransform="matrix(1,0,0,1.2929298,0,31.622367)"
       cx="285.21698"
       cy="-107.95202"
       fx="285.21698"
       fy="-107.95202"
       r="288.41388" />
    <linearGradient
       inkscape:collect="always"
       xlink:href="#linearGradient3792"
       id="linearGradient3800"
       x1="109.40577"
       y1="44.968975"
       x2="591.25275"
       y2="44.968975"
       gradientUnits="userSpaceOnUse" />
    <linearGradient
       inkscape:collect="always"
       xlink:href="#linearGradient4542"
       id="linearGradient4548"
       x1="109.40577"
       y1="44.968974"
       x2="591.25277"
       y2="44.968974"
       gradientUnits="userSpaceOnUse" />
  </defs>
  <sodipodi:namedview
     id="base"
     pagecolor="#ffffff"
     bordercolor="#666666"
     borderopacity="1.0"
     inkscape:pageopacity="0"
     inkscape:pageshadow="2"
     inkscape:zoom="3.1011416"
     inkscape:cx="279.39113"
     inkscape:cy="93.396089"
     inkscape:document-units="px"
     inkscape:current-layer="layer4"
     showgrid="false"
     inkscape:window-width="1920"
     inkscape:window-height="1087"
     inkscape:window-x="0"
     inkscape:window-y="0"
     inkscape:window-maximized="0"
     fit-margin-top="150" />
  <metadata
     id="metadata2990">
    <rdf:RDF>
      <cc:Work
         rdf:about="">
        <dc:format>image/svg+xml</dc:format>
        <dc:type
           rdf:resource="http://purl.org/dc/dcmitype/StillImage" />
        <dc:title></dc:title>
      </cc:Work>
    </rdf:RDF>
  </metadata>
  <g
     inkscape:groupmode="layer"
     id="layer5"
     inkscape:label="transparent"
     transform="translate(0,10)"
     style="display:inline" />
  <g
     inkscape:groupmode="layer"
     id="layer3"
     inkscape:label="Text"
     style="display:inline"
     transform="translate(0,10)">
    <text
       xml:space="preserve"
       style="font-size:87.16692351999998323px;font-style:normal;font-variant:normal;font-weight:normal;font-stretch:condensed;text-align:start;line-height:125%;letter-spacing:0px;word-spacing:0px;writing-mode:lr-tb;text-anchor:start;fill:#bbb9cf;fill-opacity:1;stroke:#000000;stroke-width:1.25000000000000000;stroke-miterlimit:4;stroke-opacity:1;stroke-dasharray:none;display:inline;font-family:Abadi MT Condensed Extra Bold;-inkscape-font-specification:'Abadi MT Condensed Extra Bold, Condensed'"
       x="2.4384665"
       y="60.018669"
       id="text3077"
       sodipodi:linespacing="125%"
       transform="scale(0.95244364,1.0499309)"
       inkscape:export-xdpi="104.75727"
       inkscape:export-ydpi="104.75727"><tspan
         sodipodi:role="line"
         id="tspan3079"
         x="2.4384665"
         y="60.018669"
         style="font-size:87.16692351999998323px;font-style:normal;font-variant:normal;font-weight:normal;font-stretch:condensed;text-align:start;line-height:125%;writing-mode:lr-tb;text-anchor:start;fill:#bbb9cf;fill-opacity:1;stroke:#000000;stroke-width:1.25000000000000000;stroke-miterlimit:4;stroke-opacity:1;stroke-dasharray:none;font-family:Abadi MT Condensed Extra Bold;-inkscape-font-specification:'Abadi MT Condensed Extra Bold, Condensed'">CSIRT F  undry</tspan></text>
  </g>
  <g
     inkscape:groupmode="layer"
     id="layer4"
     inkscape:label="Icon"
     style="display:inline"
     transform="translate(0,10)">
    <g
       id="g3070"
       transform="matrix(0.17210541,0,0,0.17210541,235.7163,20.521271)"
       style="fill:#bbb9cf;fill-opacity:1;stroke:#000000;stroke-width:6.39378213999999989;stroke-miterlimit:4;stroke-opacity:1;stroke-dasharray:none;display:inline"
       inkscape:export-filename="/Users/Dev/dev/csirtfoundry.com/img/text3077.png"
       inkscape:export-xdpi="104.75727"
       inkscape:export-ydpi="104.75727">
      <path
         style="fill:#bbb9cf;fill-opacity:1;fill-rule:nonzero;stroke:#000000;stroke-width:6.39378213999999989;stroke-linecap:butt;stroke-linejoin:miter;stroke-miterlimit:4;stroke-opacity:1;stroke-dasharray:none"
         id="path2125"
         d="m 125.34376,1e-4 -1,0.15625 -1,0 -1,0 -1,0 -1,0.1875 -1,0 -1,0.15625 -1,0 -1,0.1875 -1.1875,0.15625 -1,0 -1,0.15625 -1,0.1875 -1.15625,0.15625 2,14.03125 -1.1875,0.15625 -1,0.15625 -1,0.15625 -1,0.1875 -0.84375,0.15625 -1,0.15625 -0.96875,0.1875 -0.84375,0.15625 -1,0.15625 -0.84375,0.34375 -1,0.15625 -0.84375,0.15625 -1,0.1875 -0.843747,0.15625 -0.8125,0.34375 -1.00001,0.15625 -0.84375,0.34375 -0.84375,0.15625 -1,0.34375 -0.84375,0.15625 -0.8125,0.34375 -1.03125,0.15625 -0.8125,0.34375 -0.8125,0.34375 -1.03125,0.3125 -0.8125,0.34375 -1.03125,0.34375 -0.8125,0.34375 -1,0.3125 -1,0.5 -1,0.34375 -0.84375,0.5 -5.6875,-13.1875 -1,0.5 -1,0.5 -1,0.3125 -1,0.53125 -1,0.5 -1,0.5 -1,0.5 -1,0.5 -1,0.5 -1,0.5 -0.84375,0.5 -1,0.65625 -1,0.5 -1,0.5 -0.84375,0.5 -1,0.6875 -1,0.5 -0.8125,0.65625 -1,0.5 -1,0.65625 -0.84375,0.6875 -1,0.5 -1,0.65625 -0.84375,0.6875 -1,0.65625 -0.84375,0.65625 -1,0.65625 -0.84375,0.6875 -1,0.84375 -1,0.65625 -0.8125,0.84375 -1,0.65625 8.84375,10.84375 -0.6875,0.5 -0.65625,0.5 -0.5,0.5 -0.6875,0.65625 -0.65625,0.53125 -0.65625,0.46875 -0.6875,0.6875 -0.5,0.5 -0.65625,0.65625 -0.65625,0.5 -0.6875,0.6875 -0.65625,0.5 -0.5,0.65625 -0.65625,0.65625 -0.6875,0.6875 -0.65625,0.5 -0.6875,0.65625 -0.46875,0.65625 -0.6875,0.6875 -0.65625,0.8125 -0.6875,0.6875 -0.65625,0.65625 -0.65625,0.84375 -0.5,0.65625 -0.6875,0.84375 -0.65625,0.65625 -0.65625,0.84375 -0.6875,0.8125 -0.65625,0.84375 -0.5,0.84375 -0.6875,0.84375 -0.65625,0.84375 -11.1875,-8.1875 -0.5,0.84375 -0.5,0.65625 -0.65625,0.84375 -0.5,0.8125 -0.5,0.65625 -0.53125,0.84375 -0.46875,0.84375 -0.6875,0.84375 -0.5,0.8125 -0.5,0.84375 -0.5,0.84375 -0.5,0.8125 -0.5,0.84375 -0.5,0.8125 -0.5,1.03125 -0.5,0.8125 -0.5,1.03125 -0.5,0.8125 -0.5,1 -0.5,0.84375 -0.5,1 -0.5,1 -0.5,1 -0.34375,1 -0.5,1 -0.5,1 -0.5,1 -0.5,1 -0.34375,1.1875 -0.46875,1 -0.5,1.15625 -0.53125,1.15625 12.84375,5 -0.3125,0.84375 -0.34375,0.84375 -0.34375,0.84375 -0.3125,0.8125 -0.34375,0.84375 -0.15625,0.84375 -0.34375,0.8125 -0.3125,0.84375 -0.34375,0.84375 -0.1875,1 -0.3125,0.8125 -0.1875,0.84375 -0.3125,1 -0.15625,0.84375 -0.34375,0.84375 -0.1875,0.96875 -0.15625,0.84375 -0.15625,1.03125 -0.34375,0.8125 -0.15625,1 -0.15625,1 -0.1875,1 -0.15625,1 -0.34375,1 -0.15625,1 -0.1875,1 -0.15625,1 -0.15625,1 -0.1875,1 -0.15625,1.1875 -0.15625,1 0,1.15625 -13.187503,-1.5 -0.1875,1 0,1 -0.15625,1 0,1 0,0.84375 -0.15625,1 0,1 0,0.8125 0,1.03125 0,0.8125 0,1 0,0.84375 0,1 0,0.84375 0,0.96875 0,0.0312 0,0.8125 0,0.1875 0,0.8125 0,0.0312 0,0.96875 0,0.84375 0,1 0,0.84375 0,1 0,0.8125 0,1.03125 0,0.8125 0,1 0.15625,1 0,0.84375 0,1 0.15625,1 0,1 0.1875,1 13.187503,-1.5 0,1.15625 0.15625,1 0.15625,1.1875 0.1875,1 0.15625,1 0.15625,1 0.1875,1 0.15625,1 0.34375,1 0.15625,1 0.1875,1 0.15625,1 0.15625,1 0.34375,0.8125 0.15625,1.03125 0.15625,0.84375 0.1875,0.96875 0.34375,0.84375 0.15625,0.84375 0.3125,1 0.1875,0.84375 0.3125,0.8125 0.1875,1 0.34375,0.84375 0.3125,0.84375 0.34375,0.8125 0.15625,0.84375 0.34375,0.84375 0.3125,0.8125 0.34375,0.84375 0.34375,0.84375 0.3125,0.84375 -12.84375,5 0.53125,1.15625 0.5,1.15625 0.46875,1 0.34375,1.1875 0.5,1 0.5,1 0.5,1 0.5,1 0.34375,1 0.5,1 0.5,1 0.5,1 0.5,0.84375 0.5,1 0.5,0.8125 0.5,1.03125 0.5,0.8125 0.5,1.03125 0.5,0.8125 0.5,0.84375 0.5,0.8125 0.5,0.84375 0.5,0.84374 0.5,0.8125 0.6875,0.84375 0.46875,0.84375 0.53125,0.84375 0.5,0.65625 0.5,0.8125 0.65625,0.84375 0.5,0.65625 0.5,0.84375 11.1875,-8.18749 0.65625,0.84375 0.6875,0.84374 0.5,0.84375 0.65625,0.84375 0.6875,0.8125 0.65625,0.84375 0.65625,0.65625 0.6875,0.84375 0.5,0.65625 0.65625,0.84375 0.65625,0.65625 0.6875,0.6875 0.65625,0.8125 0.6875,0.6875 0.46875,0.65625 0.6875,0.65625 0.65625,0.5 0.6875,0.6875 0.65625,0.65625 0.5,0.65625 0.65625,0.5 0.6875,0.6875 0.65625,0.5 0.65625,0.65625 0.5,0.5 0.6875,0.6875 0.65625,0.46875 0.65625,0.53125 0.6875,0.65625 0.5,0.5 0.65625,0.5 0.6875,0.5 -8.84375,10.84375 1,0.65625 0.8125,0.84375 1,0.65625 1,0.84375 0.84375,0.6875 1,0.65625 0.84375,0.65625 1,0.65625 0.84375,0.6875 1,0.65625 1,0.5 0.84375,0.6875 1,0.65625 1,0.5 0.8125,0.65625 1,0.5 1,0.6875 0.84375,0.5 1,0.5 1,0.5 1,0.65625 0.84375,0.5 1,0.5 1,0.5 1,0.5 1,0.5 1,0.5 1,0.5 1,0.53125 1,0.3125 1,0.5 1,0.5 5.6875,-13.1875 0.84375,0.5 1,0.34375 1,0.5 1,0.3125 0.8125,0.34375 1.03125,0.34375 0.8125,0.34375 1.03125,0.3125 0.8125,0.34375 0.8125,0.34375 1.03125,0.15625 0.8125,0.34375 0.84375,0.15625 1,0.34375 0.84375,0.15625 0.84375,0.34375 1.00001,0.15625 0.8125,0.34375 0.843747,0.15625 1,0.1875 0.84375,0.15625 1,0.15625 0.84375,0.34375 1,0.15625 0.84375,0.15625 0.96875,0.1875 1,0.15625 0.84375,0.15625 1,0.1875 1,0.15625 1,0.15625 1.1875,0.15625 -2,14.03125 1.15625,0.15625 1,0.1875 1,0.15625 1,0 1.1875,0.15625 1,0.1875 1,0 1,0.15625 1,0 1,0.1875 1,0 1,0 1,0 1,0.15625 1,0 0.84375,0 1,0 1,0 1,0 1,0 1,0 1,0 0.84375,-0.15625 0.96875,0 1.03125,0 1,-0.1875 1,0 1,-0.15625 1,0 1,-0.1875 1,-0.15625 1,0 -1.5,-14.53125 1,-0.15625 1.1875,-0.15625 1,-0.15625 1,0 1.15625,-0.1875 1,-0.3125 1.15625,-0.1875 1,-0.15625 1.1875,-0.15625 1,-0.15625 1,-0.34375 1.15625,-0.15625 1,-0.34375 1,-0.1875 1,-0.3125 1.1875,-0.34375 1,-0.15625 1,-0.34375 1,-0.34375 1,-0.3125 1,-0.34375 1,-0.34375 1.03125,-0.3125 0.96875,-0.34375 1,-0.34375 1,-0.5 1,-0.34375 0.84375,-0.3125 1,-0.5 1,-0.34375 0.84375,-0.5 1,-0.3125 5.6875,13.34375 1,-0.34375 1,-0.5 0.8125,-0.5 1,-0.34375 0.84375,-0.5 1,-0.5 0.84375,-0.3125 0.8125,-0.5 1,-0.53125 0.84375,-0.5 0.84375,-0.3125 0.8125,-0.5 0.875,-0.5 0.8125,-0.5 1,-0.5 0.84375,-0.5 0.65625,-0.5 0.84375,-0.5 0.8125,-0.5 0.84375,-0.53125 0.84375,-0.46875 0.84375,-0.5 0.65625,-0.53125 0.84375,-0.5 0.65625,-0.65625 0.84375,-0.5 0.65625,-0.5 0.84375,-0.5 0.6875,-0.65625 0.8125,-0.5 0.6875,-0.5 0.65625,-0.6875 -8.84375,-11.65625 0.84375,-0.5 0.65625,-0.6875 0.8125,-0.65625 0.84375,-0.5 0.84375,-0.65625 0.6875,-0.6875 0.8125,-0.8125 0.84375,-0.6875 0.8125,-0.65625 0.65625,-0.65625 0.84375,-0.84375 0.84375,-0.6875 0.8125,-0.8125 0.6875,-0.84375 0.84375,-0.65625 0.84375,-0.84375 0.65625,-0.84375 0.84375,-0.84375 0.65625,-0.65625 0.65625,-0.84375 0.84375,-0.8125 0.6875,-0.84375 0.65625,-0.84375 0.65625,-0.65625 0.65625,-0.8125 0.6875,-0.84375 0.5,-0.84375 0.65625,-0.65625 0.53125,-0.84375 0.65625,-0.68749 0.5,-0.8125 0.5,-0.65625 11.6875,8.65624 0.65625,-0.8125 0.5,-0.84375 0.6875,-0.6875 0.46875,-0.8125 0.53125,-0.84375 0.65625,-0.8125 0.5,-0.84375 0.5,-0.84375 0.65625,-0.99999 0.5,-0.84375 0.5,-0.8125 0.5,-1 0.5,-0.84375 0.5,-0.84375 0.5,-1 0.5,-0.84375 0.53125,-1 0.46875,-0.8125 0.53125,-1 0.5,-0.84375 0.46875,-1 0.34375,-0.84375 0.5,-1 0.34375,-0.8125 0.5,-1 0.34375,-0.84375 0.5,-0.84375 0.3125,-1 0.34375,-0.84375 0.3125,-0.8125 0.375,-0.84375 0.3125,-0.84375 -13.5,-5.46875 0.46875,-1.03125 0.34375,-1 0.34375,-1 0.34375,-1 0.3125,-1 0.34375,-1.15625 0.34375,-1 0.3125,-1 0.34375,-1 0.34375,-1 0.3125,-1 0.1875,-1.1875 0.3125,-1 0.34375,-1 0.15625,-1 0.34375,-1 0.15625,-1 0.15625,-1 0.34375,-1 0.1875,-1 0.15625,-1 0.15625,-1 0.1875,-1 0.125,-1 0.1875,-1 0,-1.03125 0.1875,-0.8125 0.15625,-1 0,-1 0.1875,-1 0,-0.84375 0,-1 14.34375,1.34375 0.15625,-1 0,-0.84375 0.1875,-1 0,-1 0.15625,-1 0,-1 0,-1 0,-1 0,-1 0,-1 0,-1 0,-1 0,-1 -0.0312,-0.25 0.0312,-0.25 0,-1 0,-1 0,-1 0,-1 0,-1 0,-1 0,-1 0,-1 -0.15625,-1 0,-1 -0.1875,-1 0,-0.84375 -0.15625,-1 -14.34375,1.34375 0,-1 0,-0.84375 -0.1875,-1 0,-1 -0.15625,-1 -0.1875,-0.8125 0,-1.03125 -0.1875,-1 -0.125,-1 -0.1875,-1 -0.15625,-1 -0.15625,-1 -0.1875,-1 -0.34375,-1 -0.15625,-1 -0.15625,-1 -0.34375,-1 -0.15625,-1 -0.34375,-1 -0.3125,-1 -0.1875,-1.1875 -0.3125,-1 -0.34375,-1 -0.34375,-1 -0.3125,-1 -0.34375,-1 -0.34375,-1.15625 -0.3125,-1 -0.34375,-1 -0.34375,-1 -0.34375,-1 -0.46875,-1.03125 13.5,-5.46875 -0.3125,-0.84375 -0.375,-0.84375 -0.3125,-0.8125 -0.34375,-0.84375 -0.3125,-1 -0.5,-0.84375 -0.34375,-0.84375 -0.5,-1 -0.34375,-0.8125 -0.5,-1 -0.34375,-0.84375 -0.46875,-1 -0.5,-0.84375 -0.53125,-1 -0.46875,-0.8125 -0.53125,-1 -0.5,-0.84375 -0.5,-1 -0.5,-0.84375 -0.5,-0.84375 -0.5,-1 -0.5,-0.8125 -0.5,-0.84375 -0.65625,-1 -0.5,-0.84375 -0.5,-0.84375 -0.65625,-0.8125 -0.53125,-0.84375 -0.46875,-0.8125 -0.6875,-0.6875 -0.5,-0.84375 -0.65625,-0.8125 -11.6875,8.65625 -0.5,-0.65625 -0.5,-0.8125 -0.65625,-0.6875 -0.53125,-0.84375 -0.65625,-0.65625 -0.5,-0.84375 -0.6875,-0.84375 -0.65625,-0.8125 -0.65625,-0.65625 -0.65625,-0.84375 -0.6875,-0.84375 -0.84375,-0.8125 -0.65625,-0.84375 -0.65625,-0.65625 -0.84375,-0.84375 -0.65625,-0.84375 -0.84375,-0.84375 -0.84375,-0.65625 -0.6875,-0.84375 -0.8125,-0.8125 -0.84375,-0.6875 -0.84375,-0.84375 -0.65625,-0.65625 -0.8125,-0.65625 -0.84375,-0.6875 -0.8125,-0.8125 -0.6875,-0.6875 -0.84375,-0.65625 -0.84375,-0.5 -0.8125,-0.65625 -0.65625,-0.6875 -0.84375,-0.5 8.84375,-11.65625 -0.65625,-0.6875 -0.6875,-0.5 -0.8125,-0.5 -0.6875,-0.65625 -0.84375,-0.5 -0.65625,-0.5 -0.84375,-0.5 -0.65625,-0.65625 -0.84375,-0.5 -0.65625,-0.53125 -0.84375,-0.5 -0.84375,-0.46875 -0.84375,-0.53125 -0.8125,-0.5 -0.84375,-0.5 -0.65625,-0.5 -0.84375,-0.5 -1,-0.5 -0.8125,-0.5 -0.875,-0.5 -0.8125,-0.5 -0.84375,-0.3125 -0.84375,-0.5 -1,-0.53125 -0.8125,-0.5 -0.84375,-0.3125 -1,-0.5 -0.84375,-0.5 -1,-0.34375 -0.8125,-0.5 -1,-0.5 -1,-0.34375 -5.6875,13.34375 -1,-0.3125 -0.84375,-0.5 -1,-0.34375 -1,-0.5 -0.84375,-0.3125 -1,-0.34375 -1,-0.5 -1,-0.34375 -0.96875,-0.34375 -1.03125,-0.3125 -1,-0.34375 -1,-0.34375 -1,-0.3125 -1,-0.34375 -1,-0.34375 -1,-0.15625 -1.1875,-0.34375 -1,-0.3125 -1,-0.1875 -1,-0.34375 -1.15625,-0.15625 -1,-0.34375 -1,-0.15625 -1.1875,-0.15625 -1,-0.15625 -1.15625,-0.1875 -1,-0.3125 -1.15625,-0.1875 -1,0 -1,-0.15625 -1.1875,-0.15625 -1,-0.15625 1.5,-14.53125 -1,0 -1,-0.15625 -1,-0.1875 -1,0 -1,-0.15625 -1,0 -1,-0.1875 -1.03125,0 -0.96875,0 L 133.18751,0 l -1,0 -1,0 -1,0 -1,0 -1,0 -1,0 -0.84375,0 -1,0 z m 2.6875,34.375 5.34375,0.15625 5.125,0.34375 5.21875,0.84375 5.15625,1 5.1875,1.34375 5,1.65625 5,1.8125 5,2.1875 4.6875,2.5 4.84375,2.84375 4.5,3 4.34375,3.5 4.34375,3.5 4.15625,4 3.84375,4.34375 3.84375,4.5 -0.34375,0 c 3.46505,4.47663 6.55186,9.25244 9.1875,14.3125 l 0,-0.125 0.53125,1.1875 c 6.28876,12.45232 9.90917,26.47041 10.15625,41.3125 l -0.0312,0 c 0.0228,0.75579 0.0524,1.51913 0.0625,2.28125 -0.0101,0.76212 -0.0397,1.52546 -0.0625,2.28125 l 0.0312,0 c -0.24708,14.8421 -3.86749,28.86018 -10.15625,41.3125 l -0.53125,1.1875 0,-0.125 c -2.63564,5.06006 -5.72245,9.83586 -9.1875,14.3125 l 0.34375,0 -3.84375,4.5 -3.84375,4.34375 -4.15625,3.99999 -4.34375,3.5 -4.34375,3.5 -4.5,3 -4.84375,2.84375 -4.6875,2.5 -5,2.1875 -5,1.8125 -5,1.65625 -5.1875,1.34375 -5.15625,1 -5.21875,0.84375 -5.125,0.34375 -5.34375,0.15625 -5.1875,-0.15625 -5.34375,-0.34375 -5.1875,-0.84375 -5.15625,-1 -5.1875,-1.34375 -5.000007,-1.65625 -5,-1.8125 -5.03125,-2.1875 -4.65625,-2.65625 -4.84375,-2.6875 -4.5,-3.15625 -4.5,-3.34375 -4.1875,-3.84375 -4.15625,-3.99999 -4.03125,-4.3125 -3.65625,-4.53125 0.1875,0 c -3.48913,-4.55056 -6.55255,-9.41683 -9.1875,-14.5625 l -0.0312,0.21875 -0.40625,-1.09375 c -6.16594,-12.35342 -9.75299,-26.22156 -10,-40.90625 l 0.0312,0 c -0.0228,-0.75579 -0.0524,-1.51913 -0.0625,-2.28125 0.0101,-0.76212 0.0397,-1.52546 0.0625,-2.28125 l -0.0312,0 c 0.24961,-14.67813 3.83654,-28.5578 10,-40.90625 l 0.40625,-1.09375 0.0312,0.21875 c 2.63495,-5.14567 5.69837,-10.01194 9.1875,-14.5625 l -0.1875,0 3.65625,-4.53125 4.03125,-4.3125 4.15625,-4 4.1875,-3.84375 4.5,-3.34375 4.5,-3.15625 4.84375,-2.6875 4.65625,-2.65625 5.03125,-2.1875 5,-1.8125 5.000007,-1.65625 5.1875,-1.34375 5.15625,-1 5.1875,-0.84375 5.34375,-0.34375 5.1875,-0.15625 z"
         inkscape:connector-curvature="0" />
      <g
         style="fill:#bbb9cf;fill-opacity:1;stroke:#000000;stroke-width:6.39378213999999989;stroke-miterlimit:4;stroke-opacity:1;stroke-dasharray:none;display:inline"
         id="layer1-2"
         transform="translate(-92.3716,7.77586)" />
    </g>
  </g>
</svg>
